<?xml version="1.0" encoding="UTF-8"?><svg id="Calque_2" xmlns="http://www.w3.org/2000/svg" viewBox="0 0 25 18"><defs><style>.cls-1{fill:#303030;}</style></defs><g id="PORTFOLIO"><g id="HOME"><g id="MAIN"><path class="cls-1" d="M23.96,0H1.04C.47,0,0,.47,0,1.04v15.92c0,.58.47,1.04,1.04,1.04h22.92c.58,0,1.04-.47,1.04-1.04V1.04c0-.58-.47-1.04-1.04-1.04ZM20.9,4.64l-8,5c-.12.08-.26.11-.4.11s-.28-.04-.4-.11L4.1,4.64c-.35-.22-.46-.68-.24-1.03.22-.35.68-.46,1.03-.24l7.6,4.75,7.6-4.75c.35-.22.81-.11,1.03.24.22.35.11.81-.24,1.03Z"/></g></g></g></svg>