<?xml version="1.0" encoding="UTF-8"?><svg id="Calque_2" xmlns="http://www.w3.org/2000/svg" viewBox="0 0 20 20"><defs><style>.cls-1{fill:#fafafa;}</style></defs><g id="PORTFOLIO"><g id="HOME"><g id="HEADER"><path class="cls-1" d="M10,0C4.49,0,0,4.49,0,10s4.49,10,10,10,10-4.49,10-10S15.51,0,10,0ZM17.68,6h-2.78c-.37-1.63-.96-3.02-1.71-4.05,1.94.77,3.53,2.22,4.49,4.05ZM18.67,10c0,.93-.15,1.83-.42,2.67h-3.1c.12-.85.19-1.74.19-2.67s-.07-1.82-.19-2.67h3.1c.27.84.42,1.74.42,2.67ZM1.33,10c0-.93.15-1.83.42-2.67h3.1c-.12.85-.19,1.74-.19,2.67s.07,1.82.19,2.67H1.76c-.27-.84-.42-1.74-.42-2.67ZM6,10c0-.95.07-1.84.2-2.67h3.14v5.33h-3.14c-.13-.82-.2-1.72-.2-2.67ZM10.67,1.47c1.16.46,2.27,2.1,2.87,4.53h-2.87V1.47ZM9.33,1.47v4.53h-2.87c.6-2.43,1.71-4.06,2.87-4.53ZM9.33,14v4.53c-1.16-.46-2.27-2.1-2.87-4.53h2.87ZM10.67,18.53v-4.53h2.87c-.6,2.43-1.71,4.06-2.87,4.53ZM10.67,12.67v-5.33h3.14c.13.82.2,1.72.2,2.67s-.07,1.84-.2,2.67h-3.14ZM6.81,1.95c-.75,1.03-1.34,2.42-1.71,4.05h-2.78c.96-1.83,2.55-3.28,4.49-4.05ZM2.32,14h2.78c.37,1.63.96,3.02,1.71,4.05-1.94-.77-3.53-2.22-4.49-4.05ZM13.19,18.05c.75-1.03,1.34-2.42,1.71-4.05h2.78c-.96,1.83-2.55,3.28-4.49,4.05Z"/></g></g></g></svg>